<?xml version="1.0" encoding="UTF-8" standalone="no"?><!DOCTYPE svg PUBLIC "-//W3C//DTD SVG 1.1//EN" "http://www.w3.org/Graphics/SVG/1.1/DTD/svg11.dtd"><svg width="100%" height="100%" viewBox="0 0 7302 5901" version="1.1" xmlns="http://www.w3.org/2000/svg" xmlns:xlink="http://www.w3.org/1999/xlink" xml:space="preserve" xmlns:serif="http://www.serif.com/" style="fill-rule:evenodd;clip-rule:evenodd;stroke-linejoin:round;stroke-miterlimit:2;"><g><path d="M6381.537,2246.14c14.302,43.23 25.471,87.485 33.416,132.403c7.49,13.595 -0.576,24.235 -8.642,31.919c-46.091,45.514 -46.667,104.031 -31.112,158.411c21.317,74.477 34.569,153.682 91.03,212.2c14.404,15.368 4.033,36.647 6.914,54.38c5.665,80.276 5.858,160.86 0.576,241.163c-3.457,58.517 -5.185,117.626 -14.98,176.144c-69.137,-3.547 -115.804,39.603 -164.2,81.57c-98.52,85.116 -201.65,164.913 -304.779,244.118c-85.845,66.202 -104.282,124.128 -72.594,228.75c14.98,49.06 29.959,98.12 53.005,143.634c33.992,66.793 80.66,82.752 147.492,50.242c53.005,-26.008 94.487,-67.975 140.579,-103.44c16.132,-12.413 28.807,-32.51 53.581,-28.372c-28.807,93.983 -70.865,182.645 -114.652,270.717c-63.652,127.399 -137.457,249.183 -220.662,364.109c-4.114,5.203 -8.539,10.138 -13.251,14.777c-27.079,12.413 -47.244,33.101 -65.68,56.744c-190.127,243.527 -420.583,437.994 -686.761,588.13c-290.375,163.731 -601.492,257.122 -930.469,290.814c-85.269,8.866 -169.962,15.368 -255.807,15.959c-228.728,1.773 -447.086,-49.06 -659.106,-131.221c-228.152,-88.663 -437.292,-212.791 -630.875,-364.7c-32.84,-37.238 -55.31,-81.57 -85.845,-121.173c-55.31,-72.112 -116.957,-135.359 -203.378,-166.686c-35.721,-49.06 -74.322,-95.756 -107.739,-146.589c-9.218,-14.186 -21.317,-27.19 -19.013,-46.696c27.655,-33.101 20.741,-66.793 0,-100.485c-50.124,-82.161 -95.063,-168.459 -167.081,-234.07c-4.669,-4.728 -8.389,-10.352 -10.947,-16.55c-73.17,-238.799 -135.969,-480.553 -164.777,-729.4c-20.929,-181.044 -25.172,-363.71 -12.675,-545.572c14.005,-206.388 53.3,-410.145 116.957,-606.454c101.977,-315.64 257.535,-599.361 474.741,-848.208c208.563,-239.39 453.424,-430.31 729.972,-579.855c310.056,-168.167 648.182,-275.043 996.725,-315.049c176.299,-20.688 353.751,-26.008 531.203,-2.955c25.926,3.547 51.277,12.413 76.627,18.324c109.467,40.785 212.02,95.165 312.269,154.864c429.418,255.349 759.547,608.424 990.388,1059.226c4.033,8.275 7.49,17.141 10.947,26.008c4.609,20.097 -10.947,28.963 -22.47,39.012c-67.409,59.7 -82.964,127.083 -45.515,209.835c27.079,59.7 55.886,119.399 86.421,177.917c30.536,58.517 58.766,70.93 123.294,49.651c12.099,-4.138 23.622,-13.595 36.873,-3.547Z" style="fill:#1f4c8a;fill-rule:nonzero;"/><path d="M4889.33,533.173c-31.688,4.729 -62.223,-7.093 -93.911,-9.457c-31.688,-2.364 -49.548,-6.502 -74.322,-5.32c-38.601,2.364 -75.475,-7.684 -114.076,-8.275c-92.183,-0.591 -183.789,7.093 -275.396,15.368c-194.837,17.635 -387.24,56.876 -573.837,117.035c-130.428,41.862 -257.709,93.424 -380.83,154.273c-134.131,65.725 -262.674,142.834 -384.287,230.523c-79.049,57.886 -155.196,119.832 -228.152,185.601c-52.237,47.287 -102.361,96.938 -150.373,148.954c-113.072,122.331 -213.118,256.675 -298.441,400.756c-96.93,165.491 -174.662,342.047 -231.609,526.066c-36.795,117.98 -64.534,238.733 -82.964,361.153c-11.523,74.477 -17.86,149.545 -24.774,224.021c-10.371,108.169 -8.642,216.337 -4.033,323.915c3.884,94.036 12.924,187.773 27.079,280.766c19.725,135.675 47.041,270.073 81.812,402.529c19.589,75.659 42.058,150.136 63.376,225.204c3.457,13.004 9.794,25.417 8.642,39.012c-10.371,6.502 -20.741,4.138 -30.536,0c-46.667,-22.461 -96.792,-21.87 -146.916,-21.279c-89.11,0.394 -178.412,0.394 -267.906,0c-18.437,0 -40.33,5.911 -53.005,-15.959c-19.013,-54.38 -49.548,-104.031 -66.256,-159.593c9.794,-17.141 25.926,-8.866 39.178,-9.457c101.401,-3.547 202.802,7.684 303.627,-7.684c10.476,-1.598 20.861,-3.769 31.112,-6.502c45.515,-14.186 61.647,-45.514 44.939,-90.436c-29.959,-79.797 -70.289,-154.273 -112.924,-227.568c-36.297,-62.064 -95.063,-85.707 -161.896,-80.979c-66.832,4.729 -146.916,10.048 -220.086,18.915c-19.013,2.364 -39.754,7.093 -55.31,-11.231c-34.039,-155.66 -54.667,-314.091 -61.647,-473.46c-24.651,-500.078 95.448,-996.635 345.109,-1426.881c314.573,-543.011 761.275,-924.064 1340.106,-1143.16c224.079,-82.785 458.741,-131.572 696.555,-144.816c377.949,-21.87 742.647,36.056 1094.669,178.508c5.94,2.797 11.711,5.955 17.284,9.457Z" style="fill:#3b7cbf;fill-rule:nonzero;"/><path d="M2734.56,4963.36c33.416,14.186 58.766,40.785 86.997,62.064c211.227,157.116 446.424,277.165 695.979,355.242c104.118,32.333 210.693,55.664 318.606,69.748c94.038,11.81 188.974,14.185 283.462,7.093c125.616,-7.02 250.686,-22.023 374.492,-44.923c193.733,-37.335 382.483,-98.048 562.314,-180.872c163.048,-74.477 313.421,-170.233 455.152,-280.766c97.75,-75.486 188.407,-160.183 270.787,-252.985c39.754,-44.923 79.508,-89.845 114.652,-138.314c16.132,-21.87 32.84,-47.287 66.832,-40.785c-50.7,77.432 -111.195,147.18 -173.419,215.155c-291.528,318.792 -638.749,548.528 -1041.664,689.206c-315.346,109.115 -648.517,153.699 -980.593,131.221c-243.538,-15.54 -483.505,-67.925 -712.111,-155.456c-241.138,-91.751 -467.42,-220.281 -671.205,-381.25c-11.523,-8.866 -24.198,-16.55 -32.264,-29.554c15.556,-14.777 34.569,-11.231 52.429,-8.866c75.475,10.64 150.949,18.324 225.848,27.781c42.634,5.32 81.812,1.773 103.706,-43.74Z" style="fill:#3b7cbf;fill-rule:nonzero;"/><path d="M6312.4,3869.261l-127.327,101.076c-22.61,18.465 -47.385,33.954 -73.746,46.105c-69.137,31.328 -118.109,-2.364 -143.459,-50.242c-22.155,-42.786 -39.549,-87.993 -51.853,-134.768c-9.218,-31.919 -23.622,-62.655 -23.622,-97.529c-1.1,-56.247 24.219,-109.739 67.985,-143.634c88.726,-71.521 180.332,-139.496 267.33,-212.791l115.804,-96.938c14.404,-12.413 31.688,-19.506 47.82,-28.372c16.132,-8.866 45.515,-8.275 68.561,0c24.138,28.56 42.193,61.983 53.005,98.12c12.675,38.421 26.503,75.659 38.601,114.08c5.84,19.138 10.27,38.699 13.251,58.517c9.794,71.521 -9.218,132.403 -63.376,181.463c-54.157,49.06 -95.64,83.934 -144.035,125.31c-15.556,13.004 -29.959,26.599 -44.939,39.603Z" style="fill:#12aab9;fill-rule:nonzero;"/><path d="M1456.678,3534.706c58.19,2.364 115.228,-8.275 173.419,-10.048c58.19,-1.773 104.282,-15.959 157.287,-5.32c53.005,10.64 88.726,33.101 114.652,78.023c42.959,74.357 81.44,151.342 115.228,230.523c23.046,54.38 5.185,91.027 -51.277,108.169c-30.317,9.029 -61.769,13.411 -93.335,13.004c-94.487,0.591 -189.551,0 -284.038,0c-12.099,-6.502 -25.35,-4.729 -38.601,-5.911c-62.799,-6.502 -112.348,-34.283 -144.612,-91.027c-34.665,-61.873 -65.268,-126.05 -91.607,-192.103c-3.471,-8.596 -6.171,-17.5 -8.066,-26.599c-9.218,-50.242 12.099,-80.388 61.647,-88.072c28.807,-5.32 59.343,-7.093 89.302,-10.64Z" style="fill:#d35b2b;fill-rule:nonzero;"/><path d="M6381.537,2246.14c-18.437,7.093 -36.297,15.368 -55.31,20.688c-32.84,9.457 -69.713,10.64 -98.52,-36.056c-6.338,-10.048 -12.675,-20.688 -18.437,-31.328c-27.655,-56.744 -54.733,-114.08 -82.964,-170.233c-39.754,-80.388 -21.317,-186.783 50.124,-225.795c11.565,-6.667 20.678,-17.055 25.926,-29.554c10.371,0.591 16.708,-6.502 24.198,-12.413c57.614,-47.287 115.228,-93.983 169.386,-145.407l11.523,-11.231c50.7,-46.696 86.421,-41.967 119.261,20.097c38.601,72.112 75.475,145.407 109.467,219.884c33.992,74.477 28.231,145.407 -42.058,203.333c-70.289,57.926 -125.023,111.715 -186.67,168.459c-9.794,8.275 -21.317,15.368 -25.926,29.554Z" style="fill:#147d9b;fill-rule:nonzero;"/><path d="M1654.295,4108.651l307.084,2.955l74.898,0c42.058,0.591 78.931,18.324 116.381,34.874c67.409,51.424 105.434,126.492 150.373,196.24c13.898,21.304 26.593,43.407 38.025,66.202c18.437,36.647 14.404,56.153 -14.98,85.707c-29.383,29.554 -72.594,27.781 -111.771,25.417c-99.546,-6.905 -198.617,-19.733 -296.713,-38.421c-18.001,-3.64 -35.314,-10.226 -51.277,-19.506c-25.926,-8.866 -52.429,-16.55 -78.355,-26.599c-38.916,-13.568 -72.099,-40.51 -93.911,-76.25c-29.959,-49.06 -61.647,-96.938 -92.759,-145.407c-10.947,-17.141 -19.589,-34.874 -19.589,-56.153c0,-21.279 9.794,-41.967 38.025,-46.696c11.445,-1.716 23.003,-2.507 34.569,-2.364Z" style="fill:#cc2152;fill-rule:nonzero;"/><path d="M6473.72,2835.452c-1.078,-26.392 -13.022,-51.113 -32.84,-67.975c-23.622,-21.279 -30.536,-56.153 -41.482,-86.299c-10.947,-30.145 -14.98,-52.016 -25.35,-76.25c-16.708,-40.194 -16.132,-81.57 -14.404,-123.537c1.152,-27.19 13.827,-48.469 31.112,-67.975c17.284,-19.506 23.046,-18.915 25.35,-35.465c14.98,0 22.47,-12.413 32.264,-21.279l207.411,-198.605c7.386,-7.692 15.491,-14.621 24.198,-20.688c33.416,-21.279 60.495,-15.368 78.931,20.097c37.083,69.964 64.244,145.001 80.66,222.839c12.099,57.335 -1.152,109.351 -41.482,153.682c-54.733,60.291 -108.315,121.173 -162.472,182.054c-12.675,13.595 -25.926,26.599 -39.754,39.603c-33.416,30.145 -67.985,56.744 -115.228,44.331c-9.794,11.822 -2.305,24.826 -6.914,35.465Z" style="fill:#068fa9;fill-rule:nonzero;"/><path d="M2734.56,4963.36c-2.305,38.421 -9.794,48.469 -43.787,54.971c-24.774,4.729 -49.548,1.773 -74.322,-1.182c-77.779,-10.048 -155.558,-18.915 -233.337,-28.372c-10.352,-0.787 -20.738,-0.985 -31.112,-0.591c-27.655,-11.231 -56.462,-11.231 -85.269,-15.368c-92.759,-11.822 -171.69,-48.469 -229.304,-127.083c-27.655,-37.829 -57.614,-73.886 -86.421,-111.124c-6.793,-8.241 -12.776,-17.15 -17.86,-26.599c-17.284,-33.101 -6.914,-57.926 28.807,-67.384c10.228,-2.442 20.633,-4.023 31.112,-4.729c48.972,-20.688 98.52,-0.591 146.916,2.955c79.508,5.32 159.015,13.004 237.947,20.688c26.503,2.364 51.853,5.32 74.322,21.87c110.043,31.328 170.538,122.355 235.066,208.062c17.86,23.643 31.688,49.651 47.244,73.886Z" style="fill:#ab295c;fill-rule:nonzero;"/><path d="M1548.284,4439.067c-76.627,-12.413 -153.254,-24.235 -229.881,-37.829c-48.972,-8.866 -97.944,-19.506 -146.916,-29.554c-69.137,-14.186 -123.87,-50.242 -160.744,-112.897c-23.622,-40.785 -48.396,-80.388 -72.018,-121.173c-11.166,-16.759 -18.277,-36.011 -20.741,-56.153c-2.881,-29.554 10.371,-45.514 39.754,-48.469c6.526,-0.691 13.113,-0.492 19.589,0.591c101.401,23.643 205.683,29.554 308.236,44.923c19.589,2.955 39.178,6.502 58.19,10.64c49.68,9.42 94.017,37.981 123.87,79.797c42.634,58.517 78.931,121.173 118.685,181.463c6.196,10.338 11.039,21.467 14.404,33.101c10.371,34.874 -1.152,52.016 -35.721,53.789c-5.181,0.296 -10.375,0.296 -15.556,0l-1.152,1.773Z" style="fill:#b70f7d;fill-rule:nonzero;"/><path d="M1892.817,4902.479c-58.19,-5.32 -114.652,-17.733 -171.114,-28.963c-81.236,-16.55 -161.896,-36.647 -242.556,-54.971c-80.66,-18.324 -150.373,-62.655 -199.921,-134.176c-21.317,-30.736 -42.634,-61.473 -62.799,-92.8c-8.092,-12.364 -14.309,-25.916 -18.437,-40.194c-5.761,-20.688 2.881,-34.283 24.198,-37.829c11.676,-1.984 23.62,-1.582 35.145,1.182c126.751,29.554 255.231,52.016 383.134,76.25c26.962,5.648 53.378,13.758 78.931,24.235c34.669,13.217 65.295,35.66 88.726,65.019l115.804,148.363c1.723,2.022 3.265,4.198 4.609,6.502c9.794,15.959 23.622,31.919 13.827,52.016c-9.794,20.097 -31.688,14.186 -49.548,15.368Z" style="fill:#802480;fill-rule:nonzero;"/><path d="M664.483,3852.119l-19.589,-3.547c-68.857,-18.327 -136.422,-41.433 -202.226,-69.157c-57.614,-24.826 -99.096,-65.019 -123.294,-124.128c-17.284,-40.785 -35.721,-81.57 -53.005,-121.764c-2.843,-6.155 -5.343,-12.47 -7.49,-18.915c-6.914,-18.915 -14.98,-40.194 1.152,-56.744c16.132,-16.55 34.569,-8.275 52.429,-3.547c69.713,19.506 139.426,39.012 209.716,57.335c57.038,15.368 97.944,49.06 120.99,105.804c19.013,47.287 40.906,93.392 61.647,140.678c5.519,12.174 9.954,24.836 13.251,37.829c7.49,39.603 -9.218,58.517 -53.581,56.153Z" style="fill:#761754;fill-rule:nonzero;"/><path d="M917.409,4307.846c-4.609,-1.182 -14.98,-2.364 -25.35,-5.32c-96.792,-26.599 -190.703,-60.882 -278.276,-111.715c-32.84,-18.915 -61.071,-42.558 -81.236,-75.068c-31.413,-48.376 -58.781,-99.391 -81.812,-152.5c-5.677,-12.253 -9.932,-25.149 -12.675,-38.421c-5.185,-27.19 8.642,-41.967 35.721,-37.829c12.893,2.7 25.453,6.863 37.449,12.413c72.018,30.145 144.035,59.7 217.782,83.343c63.376,20.097 111.195,58.517 142.883,119.399c21.317,41.967 45.515,82.161 67.985,123.537c7.279,12.719 12.713,26.459 16.132,40.785c6.338,28.372 -4.609,41.376 -38.601,41.376Z" style="fill:#651a53;fill-rule:nonzero;"/><path d="M7051.014,2131.469c0.576,25.417 -9.218,47.287 -20.741,69.157c-25.35,47.287 -59.343,88.663 -91.03,131.812c-20.741,28.372 -48.396,27.19 -62.223,-5.32c-35.145,-80.979 -70.865,-162.549 -84.117,-251.803c-4.327,-29.873 3.143,-60.315 20.741,-84.525c33.416,-46.696 66.832,-93.392 102.553,-138.905c21.893,-27.781 43.787,-24.826 55.886,8.866c28.231,78.614 56.462,157.229 75.475,238.208c1.728,10.64 2.305,21.87 3.457,32.51Z" style="fill:#2767ae;fill-rule:nonzero;"/><path d="M2452.251,4682.004c-152.678,-20.097 -306.507,-27.19 -459.185,-45.514c-34.569,-45.514 -69.713,-91.027 -103.706,-137.132c-8.642,-11.822 -15.556,-24.826 -23.622,-37.238c43.787,6.502 88.15,11.231 131.936,20.688c83.541,18.324 169.386,21.87 254.655,25.417c25.35,1.182 48.972,-8.275 73.17,-13.004c22.47,52.016 60.495,93.392 92.759,138.314c12.801,15.016 24.183,31.245 33.992,48.469Z" style="fill:#3b7cbf;fill-rule:nonzero;"/><path d="M3508.319,2188.804c85.269,-0.591 142.883,34.874 176.876,110.533c42.634,95.756 84.117,192.103 121.566,290.223c7.459,18.793 12.682,38.441 15.556,58.517c12.099,79.797 -19.013,141.269 -91.607,173.188c-72.594,31.919 -148.068,56.744 -223.543,80.979c-105.434,33.692 -211.444,66.202 -317.454,98.711c-51.853,15.959 -105.434,24.235 -159.591,17.141c-54.157,-7.093 -95.64,-33.101 -119.261,-86.89c-46.667,-105.804 -92.183,-212.2 -131.936,-320.96c-39.754,-108.76 3.457,-201.56 108.891,-235.843c180.909,-58.517 358.936,-125.31 542.149,-174.37c27.655,-6.502 54.733,-12.413 78.355,-11.231Z" style="fill:#e19a2f;fill-rule:nonzero;"/><path d="M3391.938,3764.639c-21.07,0.112 -42.101,-1.867 -62.799,-5.911c-49.785,-10.14 -92.448,-43.021 -115.804,-89.254c-51.065,-96.09 -95.723,-195.62 -133.665,-297.907c-32.84,-88.072 -3.457,-160.184 80.66,-200.969c34.569,-17.141 72.594,-24.235 109.467,-34.283c161.704,-43.74 321.487,-93.786 479.35,-150.136c45.515,-15.959 92.183,-22.461 140.002,-13.595c51.491,8.179 97.211,38.518 125.599,83.343c37.097,57.33 69.289,117.847 96.216,180.872l46.667,106.987c39.754,93.983 12.675,173.779 -75.475,222.248c-54.733,30.145 -115.228,45.514 -173.995,65.019c-105.434,34.283 -211.444,65.019 -319.183,92.209c-43.211,11.231 -84.693,28.963 -129.632,35.465c-23.046,2.955 -44.939,5.32 -67.409,5.911Z" style="fill:#faea3c;fill-rule:nonzero;"/><path d="M4207.179,3705.53c88.726,-2.955 149.797,31.328 187.822,109.351c38.025,78.023 70.289,138.905 106.01,208.062c14.07,26.203 21.035,55.805 20.165,85.707c-1.461,36.953 -18.503,71.489 -46.667,94.574c-29.722,24.937 -64.295,43.075 -101.401,53.198c-162.472,49.06 -325.52,98.711 -488.568,146.589c-61.071,18.324 -122.718,29.554 -186.67,17.733c-63.952,-11.822 -116.957,-44.923 -150.373,-106.395c-33.416,-61.473 -70.865,-126.492 -106.586,-189.739c-10.851,-18.602 -19.552,-38.439 -25.926,-59.109c-18.437,-61.473 -1.152,-108.169 52.429,-142.452c33.594,-21.534 70.665,-36.747 109.467,-44.923c177.452,-39.603 349.718,-99.893 523.137,-154.273c37.449,-10.048 74.322,-20.097 107.162,-18.324Z" style="fill:#df912f;fill-rule:nonzero;"/><path d="M4982.665,2528.679c65.104,-1.182 112.348,25.417 144.035,80.388c42.34,73.183 80.993,148.547 115.804,225.795c39.754,88.663 12.675,168.459 -73.746,219.884c-70.289,41.967 -144.035,79.205 -217.205,115.262l-260.416,126.492c-53.581,26.008 -108.315,48.469 -169.962,47.287c-51.853,-0.591 -92.183,-21.279 -119.261,-66.202c-53.236,-88.551 -100.031,-181.011 -140.002,-276.628c-33.416,-78.023 -5.761,-153.682 65.104,-199.196c29.383,-18.915 61.647,-30.736 93.335,-43.74c152.678,-62.064 301.322,-135.359 451.119,-203.925c34.824,-16.659 72.772,-25.333 111.195,-25.417Z" style="fill:#9cc451;fill-rule:nonzero;"/><path d="M4858.795,3997.526c-66.256,-1.182 -115.804,-24.826 -148.645,-82.161c-37.235,-63.7 -70.339,-129.848 -99.096,-198.014c-32.264,-80.388 -14.404,-144.225 54.733,-194.467c20.605,-14.503 42.616,-26.784 65.68,-36.647c167.081,-73.886 330.705,-154.864 486.84,-250.62c33.967,-21.248 73.148,-32.118 112.924,-31.328c46.091,0.591 81.812,21.279 103.129,62.655c36.297,70.339 72.018,141.269 104.282,213.973c32.264,72.704 5.185,154.864 -61.071,203.925c-48.972,36.647 -103.706,64.428 -156.711,93.983c-113.5,63.246 -227.576,124.719 -341.652,186.783c-38.025,21.279 -80.66,29.554 -120.414,31.919Z" style="fill:#d3cc3e;fill-rule:nonzero;"/><path d="M4081.58,4981.684c-26.24,0.817 -52.453,-2.37 -77.779,-9.457c-40.906,-11.231 -74.898,-31.919 -97.944,-69.748c-33.992,-54.971 -68.561,-108.76 -103.129,-163.14c-7.914,-12.386 -13.937,-25.941 -17.86,-40.194c-16.132,-56.744 2.881,-101.667 53.581,-128.857c20.155,-10.107 41.438,-17.65 63.376,-22.461c189.551,-45.514 376.221,-104.031 561.162,-165.504c49.548,-16.55 100.249,-23.052 151.525,-8.866c39.754,10.64 73.17,31.919 95.063,67.384c36.179,56.563 68.519,115.614 96.792,176.735c38.601,86.89 13.251,153.682 -73.746,189.147c-103.129,41.967 -210.292,70.339 -316.302,101.076c-84.693,24.235 -169.386,50.833 -255.807,68.566c-26.169,3.545 -52.536,5.322 -78.931,5.32Z" style="fill:#d35b2b;fill-rule:nonzero;"/><path d="M2362.949,3936.645c-62.799,8.275 -123.87,-35.465 -169.962,-109.942c-46.091,-74.477 -79.508,-155.456 -109.467,-237.616c-4.488,-12.608 -7.58,-25.694 -9.218,-39.012c-7.341,-48.212 19.123,-95.602 63.376,-113.488c24.442,-10.31 50.289,-16.69 76.627,-18.915c92.183,-7.093 182.061,-29.554 272.515,-45.514c47.82,-8.866 95.64,-18.915 143.459,-26.599c28.677,-4.735 57.952,-4.134 86.421,1.773c43.376,7.972 81.274,34.972 103.706,73.886c41.482,69.157 74.322,143.043 106.01,216.928c15.556,36.056 31.112,71.521 37.449,110.533c11.523,69.157 -17.284,114.08 -84.117,126.492c-170.924,30.997 -343.496,51.524 -516.799,61.473Z" style="fill:#df912f;fill-rule:nonzero;"/><path d="M5566.297,2790.529c-40.33,0 -77.779,-11.231 -100.249,-46.696c-53.623,-85.009 -98.422,-175.545 -133.665,-270.126c-28.231,-75.068 10.371,-130.039 65.68,-163.731c138.85,-85.116 278.276,-169.642 413.67,-260.078c21.862,-15.295 45.986,-26.872 71.442,-34.283c40.906,-11.822 80.084,-1.773 103.129,31.919c54.157,79.797 99.673,165.504 128.48,258.896c20.741,68.566 -1.728,126.492 -55.31,168.459c-119.261,92.8 -239.675,183.828 -363.545,270.717c-38.079,27.484 -83.108,43.088 -129.632,44.923Z" style="fill:#2ea57f;fill-rule:nonzero;"/><path d="M2778.347,4524.775c-26.503,0 -53.005,2.364 -78.931,-0.591c-74.322,-8.866 -133.665,-43.74 -176.876,-108.76c-44.03,-65.73 -83.312,-134.677 -117.533,-206.289c-3.924,-8.531 -7.012,-17.441 -9.218,-26.599c-12.099,-42.558 2.881,-74.477 42.634,-91.618c39.754,-17.141 72.594,-14.777 108.891,-17.141c134.241,-9.457 267.33,-26.599 400.995,-38.421c101.977,-8.866 186.67,25.417 240.827,120.581c29.959,52.607 61.071,104.031 91.607,156.638c13.414,21.822 23.698,45.512 30.536,70.339c14.98,59.109 -6.338,97.529 -63.952,113.488c-33.416,8.866 -67.409,10.64 -101.977,12.413c-122.142,6.502 -244.86,11.822 -367.002,17.733l-0,-1.773Z" style="fill:#d35b2b;fill-rule:nonzero;"/></g></svg>