<?xml version="1.0" encoding="iso-8859-1"?>
<!-- Generator: Adobe Illustrator 21.0.0, SVG Export Plug-In . SVG Version: 6.00 Build 0)  -->
<svg version="1.1" id="Capa_1" xmlns="http://www.w3.org/2000/svg" xmlns:xlink="http://www.w3.org/1999/xlink" x="0px" y="0px"
	 viewBox="0 0 170.49 47.5" style="enable-background:new 0 0 170.49 47.5;" xml:space="preserve">
<g>
	<path style="fill-rule:evenodd;clip-rule:evenodd;" d="M164.99,22.41h-2.05l0.01,8.56c-0.26,0.18-0.75,0.27-1.19,0.27
		c-1.17,0-2.12-0.57-2.12-2.34l0-12.51c0-0.58,0.38-0.58,0.62-0.58l2.07,0c0.5,0,0.64,0.18,0.64,0.58v3.44l2.03,0
		c0.51,0,0.51,0.35,0.51,0.54v1.46C165.49,22.09,165.49,22.41,164.99,22.41L164.99,22.41z M155.34,26.5h-4.54
		c0,1.34,0.92,1.99,2.36,1.99c0.93,0,1.82-0.34,2.27-0.53c0.46-0.21,0.62-0.02,0.75,0.24l0.62,1.44c0.17,0.41-0.06,0.61-0.25,0.73
		c-1.06,0.71-2.61,0.96-3.7,0.96c-3.69,0-5.41-1.84-5.41-5.79c0-3.66,2.01-5.94,5.23-5.94c2.74,0,4.65,2.17,4.65,4.83
		C157.32,26.22,156.88,26.5,155.34,26.5L155.34,26.5L155.34,26.5z M152.73,22.28c-1.24,0-1.83,0.87-1.86,1.92h3.68
		C154.52,22.85,153.83,22.28,152.73,22.28L152.73,22.28L152.73,22.28z M144.75,31.24h-2.11c-0.26,0-0.61-0.06-0.61-0.56v-5.57
		c0-1.85-0.59-2.5-2.25-2.5c-0.24,0-0.7,0-1.2,0.07v8c0,0.47-0.21,0.56-0.6,0.56h-2.09c-0.26,0-0.61-0.06-0.61-0.56l0-8.86
		c0-0.97,0.23-1.62,1.4-1.85c0.59-0.11,2.18-0.21,2.98-0.21c3.99,0,5.7,1.66,5.7,5.53v5.39C145.35,31.15,145.15,31.24,144.75,31.24
		L144.75,31.24z M127.92,31.32c-3.26,0-4.91-1.22-4.91-3.63c0-2.22,1.67-3.62,4.46-3.62l2.05,0v-0.41c0-0.67-0.19-1.28-1.59-1.28
		c-0.78,0-2.04,0.17-2.81,0.39c-0.08,0.02-0.17,0.03-0.26,0.04c-0.37,0-0.44-0.32-0.47-0.44l-0.33-1.45c-0.09-0.34,0-0.56,0.32-0.69
		c1.44-0.52,2.96-0.63,3.98-0.63c2.96,0,4.46,1.34,4.46,3.98v5.99c0,0.36-0.04,0.71-0.52,0.97
		C130.81,31.25,128.74,31.32,127.92,31.32L127.92,31.32L127.92,31.32z M129.51,26.38h-1.42c-1.32,0-1.93,0.45-1.93,1.34
		c0,0.48,0.43,1.26,1.85,1.26c0.28,0,1.01-0.05,1.51-0.21V26.38L129.51,26.38z M119.91,31.24c-1.17,0-2.11-0.72-2.11-2.34l0-4.95h0
		v-7.57c0-0.58,0.43-0.58,0.68-0.58l1.98,0c0.44,0,0.67,0.15,0.67,0.56l-0.02,14.61C120.84,31.15,120.35,31.24,119.91,31.24
		L119.91,31.24z M110.85,30.94c-0.01,0-0.02,0-0.03,0c-0.7,0-1.4-0.08-2.09-0.22l-0.01,4.9c-0.23,0.12-0.77,0.21-1.21,0.21
		c-1.17,0-2.12-0.86-2.12-2.34l-0.01-12.57c0-0.34,0.18-0.58,0.6-0.8c1.67-0.75,3.75-0.82,4.58-0.81c3.48,0.02,5.19,2.05,5.17,5.86
		C115.71,28.75,113.9,30.96,110.85,30.94L110.85,30.94L110.85,30.94z M110.16,22.26c-0.46,0-0.92,0.06-1.36,0.17l-0.04,5.35
		c0.49,0.13,0.99,0.2,1.5,0.2c1.42,0.01,2.12-0.94,2.13-2.9C112.4,23.12,111.74,22.27,110.16,22.26L110.16,22.26L110.16,22.26z
		 M101.25,26.5h-4.55c0,1.34,0.92,1.99,2.36,1.99c0.93,0,1.83-0.34,2.28-0.53c0.16-0.06,0.26-0.07,0.34-0.07
		c0.26,0,0.36,0.21,0.4,0.31l0.62,1.44c0.17,0.41-0.07,0.61-0.26,0.73c-1.06,0.71-2.6,0.96-3.7,0.96c-3.69,0-5.41-1.84-5.41-5.79
		c0-3.66,2-5.94,5.23-5.94c2.74,0,4.66,2.17,4.65,4.83C103.22,26.22,102.79,26.5,101.25,26.5L101.25,26.5L101.25,26.5z M98.64,22.28
		c-1.24,0-1.83,0.87-1.86,1.92h3.68C100.43,22.85,99.73,22.28,98.64,22.28L98.64,22.28z M90.54,31.24h-2.11
		c-0.26,0-0.61-0.06-0.61-0.56v-5.57c0-1.85-0.59-2.5-2.25-2.5c-0.23,0-0.7,0-1.2,0.07v8c0,0.47-0.21,0.56-0.61,0.56h-2.09
		c-0.26,0-0.61-0.06-0.61-0.56v-8.86c0-0.97,0.23-1.62,1.41-1.85c0.59-0.11,2.18-0.21,2.97-0.21c4,0,5.7,1.66,5.7,5.53v5.39
		C91.14,31.15,90.94,31.24,90.54,31.24L90.54,31.24z M77.17,31.24c-1.17,0-2.11-0.72-2.11-2.34l-0.01-8.29
		c0-0.58,0.38-0.58,0.63-0.58h2.07c0.51,0,0.63,0.21,0.63,0.56c0,0-0.02,9.97-0.02,10.38C78.1,31.15,77.61,31.24,77.17,31.24
		L77.17,31.24L77.17,31.24z M77.73,18.86h-2.07c-0.26,0-0.61-0.06-0.61-0.56v-1.39c0-0.5,0.35-0.56,0.61-0.56l2.07,0
		c0.4,0,0.63,0.09,0.63,0.56v1.39C78.36,18.77,78.12,18.86,77.73,18.86L77.73,18.86L77.73,18.86z M68.31,31.32
		c-3.3,0-5.05-2-5.05-5.8c0-3.65,2-5.91,5.23-5.91c1.16,0,2.36,0.26,3.28,0.72c0.43,0.2,0.49,0.39,0.31,0.82l-0.56,1.58
		c-0.06,0.16-0.18,0.38-0.46,0.38c-0.11,0-0.24-0.03-0.39-0.08c-0.74-0.24-1.4-0.36-1.96-0.36c-1.83,0-2.03,1.99-2.03,2.85
		c0,1.9,0.64,2.75,2.09,2.75c0.93,0,1.82-0.29,2.27-0.46c0.16-0.06,0.27-0.09,0.36-0.09c0.27,0,0.36,0.25,0.4,0.39l0.56,1.54
		c0.11,0.25,0.21,0.55-0.22,0.8C70.8,31.21,69.17,31.32,68.31,31.32L68.31,31.32L68.31,31.32z M53.78,19.2c0,0-0.25,0.53-0.52,0.2
		c-0.13,0.05-0.28-0.01-0.43-0.42c-0.3-0.88-0.36-0.99-0.43-1.23c-0.12-0.43-0.08-0.65,0.13-0.98l0.66-0.87c0,0,0.23-0.37,0.41-0.09
		c0.09-0.07,0.22-0.08,0.31,0.16c0,0,0.29,0.83,0.4,1.18c0.19,0.62,0.26,0.83,0.03,1.24C54.12,18.8,53.78,19.2,53.78,19.2
		L53.78,19.2z M52.68,20.77c-0.45,0.51-0.69,0.78-0.95,1.07c-0.34,0.36-0.86,0.97-1.23,0.92c-0.11-0.01-0.22-0.05-0.32-0.12
		c-0.35-0.08-0.49-0.34-0.7-0.94c-0.22-0.64-0.55-1.38,0.08-1.96c0,0,0.57-0.53,1-0.93c0.43-0.41,0.91-0.88,0.91-0.88
		s0.3-0.25,0.53-0.04c0.11-0.02,0.23,0.01,0.32,0.16c0.2,0.31,0.47,1.08,0.54,1.35C52.93,19.66,53.12,20.26,52.68,20.77L52.68,20.77
		z M49.74,18.58c0,0-0.58,0.57-1.04,0.27c-0.18-0.02-0.37-0.13-0.51-0.42c-0.42-0.84-0.64-1.32-0.64-1.32s-0.51-0.94,0.3-1.59
		c0.85-0.67,1.46-1.19,1.7-1.43c0.17-0.17,0.41-0.35,0.65-0.19c0.16-0.02,0.33,0.06,0.5,0.38c0.25,0.46,0.74,1.47,0.74,1.47
		s0.49,0.87-0.13,1.44C50.7,17.72,49.74,18.58,49.74,18.58L49.74,18.58L49.74,18.58z M47.23,20.42c-0.79,0.6-1.62,1.21-2.42,1.79
		c-0.81,0.58-0.57,0.46-1.11,0.46c-0.25,0-0.43-0.06-0.57-0.16c-0.28-0.09-0.43-0.3-0.59-0.6c-0.24-0.45-0.49-0.98-0.66-1.32
		c-0.17-0.34-0.43-1.13,0.58-1.59c0,0,0.66-0.42,1.46-0.91c0.49-0.3,0.99-0.61,1.47-0.94c0.48-0.32,0.51-0.32,0.92-0.09
		c0.17,0.03,0.35,0.12,0.49,0.34c0.4,0.65,0.73,1.4,0.73,1.4S48.08,19.76,47.23,20.42L47.23,20.42L47.23,20.42z M42.3,25.72
		c0.17,0.07,0.34,0.2,0.46,0.44c0,0,0.59,1.19,0.73,1.49c0.19,0.39,0.13,1.12-0.54,1.56c-0.68,0.44-3.63,2.01-3.63,2.01
		s-1.06,0.46-1.65-0.16c-0.13-0.09-0.25-0.2-0.33-0.34c-0.54-0.9-0.62-1.18-0.74-1.44c-0.12-0.26-0.48-1.13,0.83-1.7
		c0,0,0.75-0.31,1.82-0.85c1.07-0.54,1.78-0.99,1.78-0.99S41.78,25.31,42.3,25.72L42.3,25.72L42.3,25.72z M37.42,26.27
		c-0.61,0.31-1.48,0.66-2.04,0.13c-0.16-0.1-0.29-0.23-0.38-0.4c-0.49-0.84-0.92-1.78-0.92-1.78s-0.69-1.2,0.86-1.79
		c0,0,0.84-0.33,1.77-0.76c0.94-0.43,1.79-0.83,1.79-0.83s0.8-0.37,1.4,0.03c0.21,0.08,0.41,0.24,0.56,0.51
		c0.56,0.99,0.78,1.51,0.78,1.51s0.64,1.06-0.49,1.71C39.64,25.24,37.97,25.99,37.42,26.27L37.42,26.27L37.42,26.27z M37.19,34.31
		c0.1,0.08,0.2,0.18,0.28,0.31c0.5,0.83,0.66,1.19,0.66,1.19s0.6,1.02-0.61,1.45c-1.38,0.49-3.91,1.15-3.91,1.15
		s-1.44,0.35-1.97-0.45l-0.02-0.03c-0.05-0.05-0.09-0.1-0.13-0.15c-0.56-0.84-0.84-1.33-0.84-1.33s-0.51-0.94,0.67-1.24
		c0,0,1.14-0.27,2.25-0.61c1.08-0.33,2-0.63,2-0.63S36.63,33.64,37.19,34.31L37.19,34.31L37.19,34.31z M34.73,29.53
		c0.23,0.17,0.33,0.36,0.33,0.36s0.32,0.56,0.86,1.64c0.68,1.37-0.94,1.73-0.94,1.73s-1.48,0.44-3.5,1.05
		c-1.52,0.46-2.15-0.15-2.36-0.45c-0.09-0.09-0.17-0.2-0.22-0.32l-0.85-1.5c-0.62-1.21,0.5-1.54,1.54-1.77
		c0.61-0.13,1.8-0.52,3.36-1.01C33.95,28.95,34.49,29.28,34.73,29.53L34.73,29.53L34.73,29.53z M31.98,24.19
		c0.14,0.09,0.26,0.21,0.38,0.37c0.56,0.81,0.97,1.93,0.97,1.93s0.89,1.36-0.83,1.96c-1.72,0.61-3.45,1.03-3.45,1.03
		s-1.66,0.68-2.36-0.26c-0.08-0.08-0.16-0.17-0.21-0.28c-0.36-0.67-0.69-1.37-0.96-2.08c-0.27-0.71-0.69-1.3,1.01-1.71
		c0,0,1.14-0.3,2.02-0.57c0.81-0.25,1.95-0.65,1.95-0.65S31.37,23.65,31.98,24.19L31.98,24.19L31.98,24.19z M26.09,18.93
		c1.1-0.38,1.76-0.53,1.76-0.53s0.91-0.37,1.56,0.08c0.22,0.11,0.42,0.3,0.56,0.61c0.58,1.27,0.85,2.01,0.85,2.01
		s0.71,1.33-0.58,1.85c-1.34,0.53-3.6,1.18-3.6,1.18s-1.47,0.58-2.09-0.13c-0.11-0.09-0.2-0.2-0.26-0.33
		c-0.55-1.2-1.03-2.47-1.03-2.47s-0.39-1.18,0.85-1.61C24.12,19.57,25.08,19.28,26.09,18.93L26.09,18.93L26.09,18.93z M24.07,31.56
		c0.75-0.09,1.49-0.11,2.04,0.62c0.08,0.08,0.15,0.18,0.22,0.29l0.74,1.25c0,0,0.77,1.19-0.5,1.32c-1.23,0.12-3.01,0.16-3.01,0.16
		s-1.26,0.21-1.88-0.59c-0.27-0.35-0.47-0.69-0.63-0.95c-0.14-0.24-0.27-0.48-0.38-0.73c-0.11-0.25-0.67-0.99,0.58-1.09
		C22.46,31.73,23.48,31.63,24.07,31.56L24.07,31.56L24.07,31.56z M19.57,30.66c-0.2-0.15-0.41-0.45-0.59-0.77
		c-0.2-0.34-0.37-0.7-0.51-1.06c-0.22-0.54-0.4-0.92-0.15-1.35c0.23-0.4,1.07-0.41,1.07-0.41s0.59-0.08,1.31-0.22
		c0.72-0.14,1.41-0.27,1.41-0.27s1.01-0.24,1.45,0.44l0,0.01c0.04,0.04,0.07,0.07,0.1,0.12c0.45,0.72,0.87,1.78,0.87,1.78
		s0.7,1.35-0.35,1.56c-1.05,0.21-2.77,0.39-3.13,0.41C20.3,30.95,20.01,30.99,19.57,30.66L19.57,30.66L19.57,30.66z M19.27,16.74
		c-2.67,5.78-1.74,11.32-0.36,15.54c0.03,0.09,0.07,0.18,0.1,0.26c0.07,0.07,0.13,0.13,0.19,0.22c0.56,0.78,0.77,1.2,0.77,1.2
		s0.09,0.11,0.15,0.25c0.1,0.16,0.26,0.48,0.05,0.68c0.31,0.48,0.66,0.94,1.02,1.37c0.23,0.09,0.44,0.22,0.63,0.43
		c0.57,0.6,0.94,1.17,0.95,1.18c2.85,2.46,6.54,3.84,9.3,3.88c5.8,0.07,10.86-2.39,14.13-6.72l0.25,0
		c-3.32,4.51-8.69,7.47-14.66,7.47c-3.44,0-6.74-0.96-9.51-2.65c-0.65-0.4-1.28-0.84-1.87-1.31c-0.16-0.02-0.31-0.04-0.44-0.06
		c-0.65-0.08-1.22-0.17-1.73-0.68c-0.18-0.18-0.89-1.09-0.97-1.21c-0.04-0.06-0.07-0.13-0.09-0.2c-0.25-0.4,0.11-0.56,0.44-0.53
		l0.08,0.01c-0.3-0.36-0.6-0.74-0.87-1.11c-0.46-0.09-1.01-0.27-1.24-0.61c-0.51-0.74-0.83-1.29-0.83-1.29s-0.03-0.06-0.05-0.13
		l-0.01-0.02c0,0-0.33-0.64,0.34-0.63l0.2,0c-0.17-0.34-0.33-0.68-0.47-1.03C14.65,31,14.58,31,14.58,31s-0.76,0.04-1.15-0.63
		c-0.37-0.63-0.7-1.46-0.7-1.46s-0.02-0.04-0.03-0.09l-0.02-0.04c0,0-0.34-0.76,0.55-0.8l0.58-0.04c-0.33-1.44-0.51-2.94-0.48-4.45
		c0.07-4.42,1.64-8.62,4.39-11.88C21.15,7.55,26.08,5,31.65,5c2.54,0,4.93,0.47,7.11,1.4c-0.59-0.07-0.86-0.12-1.46-0.15
		C30.05,5.91,22.44,9.88,19.27,16.74L19.27,16.74L19.27,16.74z M13.6,32.25c0.38,0.4,0.69,0.99,0.9,1.28
		c0.13,0.18,0.23,0.36,0.27,0.52c0.15,0.32,0.12,0.58-0.35,0.52c-0.8-0.1-1.6-0.24-2.39-0.4c-0.45-0.1-0.99-0.18-1.37-0.72
		c-0.36-0.51-0.69-1.13-0.69-1.13s-0.08-0.15-0.1-0.31c-0.04-0.13-0.07-0.3,0.02-0.4c0.16-0.17,0.52-0.05,0.52-0.05
		s0.36,0.08,1.2,0.18C12.43,31.82,13.22,31.85,13.6,32.25L13.6,32.25L13.6,32.25z M10.1,33.24c0.08,0.21,0.11,0.5-0.43,0.35
		c-0.78-0.22-1.46-0.49-1.81-0.69c-0.35-0.2-0.58-0.24-0.96-0.9c-0.28-0.49-0.55-0.98-0.54-1.22c-0.03-0.12-0.03-0.22,0.03-0.26
		c0.17-0.14,0.42,0.02,0.64,0.1c0,0,0.59,0.25,1.11,0.43c0.51,0.18,0.93,0.26,1.26,0.82c0.33,0.57,0.53,0.94,0.59,1.04
		C10.01,32.95,10.09,33.1,10.1,33.24L10.1,33.24L10.1,33.24z M7.77,30.28c-1.04-0.3-1.39-0.48-1.55-0.57
		C6,29.59,5.77,29.46,5.53,28.94c-0.36-0.79-0.46-1.05-0.46-1.05s-0.06-0.14-0.05-0.26c-0.04-0.17-0.03-0.44,0.47-0.28
		c0.65,0.2,0.89,0.26,1.17,0.33c0.63,0.14,0.95,0.28,1.17,0.82l0.38,0.87c0,0,0.15,0.26,0.18,0.49C8.46,30.14,8.44,30.48,7.77,30.28
		L7.77,30.28L7.77,30.28z M12.42,34.98c0.81,0.18,1.11,0.25,1.73,0.36c0.73,0.13,1.61,0.23,2.05,0.73c0,0,0.34,0.4,0.53,0.65
		l0.41,0.54c0,0,0.09,0.13,0.12,0.25c0.1,0.16,0.26,0.52-0.49,0.4c-0.66-0.1-1.32-0.24-1.97-0.39c-0.61-0.14-1.09-0.22-1.51-0.44
		c-0.5-0.26-0.89-0.85-1.15-1.25c-0.11-0.17-0.22-0.35-0.23-0.49C11.78,35.06,11.82,34.85,12.42,34.98L12.42,34.98L12.42,34.98z
		 M45.91,29.79c-0.25-0.75,0.14-1.3,0.54-1.58c0.39-0.28,1.5-1.17,1.89-1.48c0.39-0.31,0.86-0.83,1.28-0.89c0.02,0,0.04,0,0.06,0
		c0.11,0,0.22,0.05,0.29,0.13c0.35,0.04,0.51,0.54,0.62,0.87c0.13,0.35,0.36,0.92,0.36,1.33c0,0.42-0.02,0.68-0.53,1.16
		c-0.51,0.48-2.14,1.79-2.14,1.79c-0.37,0.27-0.69,0.56-1.14,0.49c-0.14-0.02-0.26-0.09-0.36-0.2
		C46.34,31.22,46.14,30.47,45.91,29.79L45.91,29.79L45.91,29.79z"/>
	<path style="fill-rule:evenodd;clip-rule:evenodd;" d="M164.99,22.41h-2.05l0.01,8.56c-0.26,0.18-0.75,0.27-1.19,0.27
		c-1.17,0-2.12-0.57-2.12-2.34l0-12.51c0-0.58,0.38-0.58,0.62-0.58l2.07,0c0.5,0,0.64,0.18,0.64,0.58v3.44l2.03,0
		c0.51,0,0.51,0.35,0.51,0.54v1.46C165.49,22.09,165.49,22.41,164.99,22.41L164.99,22.41z M155.34,26.5h-4.54
		c0,1.34,0.92,1.99,2.36,1.99c0.93,0,1.82-0.34,2.27-0.53c0.46-0.21,0.62-0.02,0.75,0.24l0.62,1.44c0.17,0.41-0.06,0.61-0.25,0.73
		c-1.06,0.71-2.61,0.96-3.7,0.96c-3.69,0-5.41-1.84-5.41-5.79c0-3.66,2.01-5.94,5.23-5.94c2.74,0,4.65,2.17,4.65,4.83
		C157.32,26.22,156.88,26.5,155.34,26.5L155.34,26.5L155.34,26.5z M152.73,22.28c-1.24,0-1.83,0.87-1.86,1.92h3.68
		C154.52,22.85,153.83,22.28,152.73,22.28L152.73,22.28L152.73,22.28z M144.75,31.24h-2.11c-0.26,0-0.61-0.06-0.61-0.56v-5.57
		c0-1.85-0.59-2.5-2.25-2.5c-0.24,0-0.7,0-1.2,0.07v8c0,0.47-0.21,0.56-0.6,0.56h-2.09c-0.26,0-0.61-0.06-0.61-0.56l0-8.86
		c0-0.97,0.23-1.62,1.4-1.85c0.59-0.11,2.18-0.21,2.98-0.21c3.99,0,5.7,1.66,5.7,5.53v5.39C145.35,31.15,145.15,31.24,144.75,31.24
		L144.75,31.24z M127.92,31.32c-3.26,0-4.91-1.22-4.91-3.63c0-2.22,1.67-3.62,4.46-3.62l2.05,0v-0.41c0-0.67-0.19-1.28-1.59-1.28
		c-0.78,0-2.04,0.17-2.81,0.39c-0.08,0.02-0.17,0.03-0.26,0.04c-0.37,0-0.44-0.32-0.47-0.44l-0.33-1.45c-0.09-0.34,0-0.56,0.32-0.69
		c1.44-0.52,2.96-0.63,3.98-0.63c2.96,0,4.46,1.34,4.46,3.98v5.99c0,0.36-0.04,0.71-0.52,0.97
		C130.81,31.25,128.74,31.32,127.92,31.32L127.92,31.32L127.92,31.32z M129.51,26.38h-1.42c-1.32,0-1.93,0.45-1.93,1.34
		c0,0.48,0.43,1.26,1.85,1.26c0.28,0,1.01-0.05,1.51-0.21V26.38L129.51,26.38z M119.91,31.24c-1.17,0-2.11-0.72-2.11-2.34l0-4.95h0
		v-7.57c0-0.58,0.43-0.58,0.68-0.58l1.98,0c0.44,0,0.67,0.15,0.67,0.56l-0.02,14.61C120.84,31.15,120.35,31.24,119.91,31.24
		L119.91,31.24z M110.85,30.94c-0.01,0-0.02,0-0.03,0c-0.7,0-1.4-0.08-2.09-0.22l-0.01,4.9c-0.23,0.12-0.77,0.21-1.21,0.21
		c-1.17,0-2.12-0.86-2.12-2.34l-0.01-12.57c0-0.34,0.18-0.58,0.6-0.8c1.67-0.75,3.75-0.82,4.58-0.81c3.48,0.02,5.19,2.05,5.17,5.86
		C115.71,28.75,113.9,30.96,110.85,30.94L110.85,30.94L110.85,30.94z M110.16,22.26c-0.46,0-0.92,0.06-1.36,0.17l-0.04,5.35
		c0.49,0.13,0.99,0.2,1.5,0.2c1.42,0.01,2.12-0.94,2.13-2.9C112.4,23.12,111.74,22.27,110.16,22.26L110.16,22.26L110.16,22.26z
		 M101.25,26.5h-4.55c0,1.34,0.92,1.99,2.36,1.99c0.93,0,1.83-0.34,2.28-0.53c0.16-0.06,0.26-0.07,0.34-0.07
		c0.26,0,0.36,0.21,0.4,0.31l0.62,1.44c0.17,0.41-0.07,0.61-0.26,0.73c-1.06,0.71-2.6,0.96-3.7,0.96c-3.69,0-5.41-1.84-5.41-5.79
		c0-3.66,2-5.94,5.23-5.94c2.74,0,4.66,2.17,4.65,4.83C103.22,26.22,102.79,26.5,101.25,26.5L101.25,26.5L101.25,26.5z M98.64,22.28
		c-1.24,0-1.83,0.87-1.86,1.92h3.68C100.43,22.85,99.73,22.28,98.64,22.28L98.64,22.28z M90.54,31.24h-2.11
		c-0.26,0-0.61-0.06-0.61-0.56v-5.57c0-1.85-0.59-2.5-2.25-2.5c-0.23,0-0.7,0-1.2,0.07v8c0,0.47-0.21,0.56-0.61,0.56h-2.09
		c-0.26,0-0.61-0.06-0.61-0.56v-8.86c0-0.97,0.23-1.62,1.41-1.85c0.59-0.11,2.18-0.21,2.97-0.21c4,0,5.7,1.66,5.7,5.53v5.39
		C91.14,31.15,90.94,31.24,90.54,31.24L90.54,31.24z M77.17,31.24c-1.17,0-2.11-0.72-2.11-2.34l-0.01-8.29
		c0-0.58,0.38-0.58,0.63-0.58h2.07c0.51,0,0.63,0.21,0.63,0.56c0,0-0.02,9.97-0.02,10.38C78.1,31.15,77.61,31.24,77.17,31.24
		L77.17,31.24L77.17,31.24z M77.73,18.86h-2.07c-0.26,0-0.61-0.06-0.61-0.56v-1.39c0-0.5,0.35-0.56,0.61-0.56l2.07,0
		c0.4,0,0.63,0.09,0.63,0.56v1.39C78.36,18.77,78.12,18.86,77.73,18.86L77.73,18.86L77.73,18.86z M68.31,31.32
		c-3.3,0-5.05-2-5.05-5.8c0-3.65,2-5.91,5.23-5.91c1.16,0,2.36,0.26,3.28,0.72c0.43,0.2,0.49,0.39,0.31,0.82l-0.56,1.58
		c-0.06,0.16-0.18,0.38-0.46,0.38c-0.11,0-0.24-0.03-0.39-0.08c-0.74-0.24-1.4-0.36-1.96-0.36c-1.83,0-2.03,1.99-2.03,2.85
		c0,1.9,0.64,2.75,2.09,2.75c0.93,0,1.82-0.29,2.27-0.46c0.16-0.06,0.27-0.09,0.36-0.09c0.27,0,0.36,0.25,0.4,0.39l0.56,1.54
		c0.11,0.25,0.21,0.55-0.22,0.8C70.8,31.21,69.17,31.32,68.31,31.32L68.31,31.32L68.31,31.32z"/>
</g>
</svg>
